<svg width="25" height="25" viewBox="0 0 25 25" fill="none" xmlns="http://www.w3.org/2000/svg">
<g clip-path="url(#clip0_49_957)">
<path d="M12.5002 23.5263C10.0153 20.7902 6.6452 19.018 2.98269 18.5213C2.56582 18.4752 2.1808 18.2764 1.90194 17.9631C1.62308 17.6499 1.47015 17.2444 1.47269 16.825V3.17C1.4726 2.92702 1.52471 2.68685 1.6255 2.46576C1.72629 2.24467 1.8734 2.04781 2.05688 1.88851C2.24036 1.72921 2.45592 1.61119 2.68897 1.54244C2.92202 1.47368 3.16712 1.4558 3.40769 1.49C6.90952 2.07129 10.113 3.81659 12.5002 6.44375V23.5263Z" stroke="black" stroke-width="1.5" stroke-linecap="round" stroke-linejoin="round"/>
<path d="M12.5 23.5263C14.9849 20.7902 18.355 19.018 22.0175 18.5213C22.4344 18.4752 22.8194 18.2764 23.0982 17.9631C23.3771 17.6499 23.53 17.2444 23.5275 16.825V3.17001C23.5276 2.92715 23.4755 2.6871 23.3748 2.46611C23.274 2.24512 23.1271 2.04833 22.9437 1.88905C22.7604 1.72977 22.545 1.61172 22.3121 1.54288C22.0792 1.47403 21.8342 1.456 21.5937 1.49001C18.0915 2.07103 14.8875 3.81635 12.5 6.44376V23.5263Z" stroke="black" stroke-width="1.5" stroke-linecap="round" stroke-linejoin="round"/>
</g>
<defs>
<clipPath id="clip0_49_957">
<rect width="25" height="25" fill="white"/>
</clipPath>
</defs>
</svg>
