<svg width="16" height="16" viewBox="0 0 16 16" fill="none" xmlns="http://www.w3.org/2000/svg">
  <path fill="black" fill-rule="evenodd" clip-rule="evenodd" d="M15.1109 1.784C15.2195 1.87356 15.3094 1.98366 15.3755 2.108C15.4415 2.23234 15.4824 2.36848 15.4958 2.50864C15.5092 2.64879 15.4948 2.79021 15.4534 2.9248C15.4121 3.05939 15.3446 3.18451 15.2549 3.293L6.64089 13.718L6.63789 13.72C6.44197 13.9553 6.19608 14.1439 5.9181 14.2723C5.64013 14.4006 5.33705 14.4654 5.03089 14.462C4.71971 14.458 4.41348 14.3836 4.13516 14.2444C3.85684 14.1051 3.61367 13.9046 3.42389 13.658L0.724894 10.191C0.638484 10.08 0.57479 9.953 0.537448 9.81735C0.500106 9.6817 0.489848 9.54003 0.507259 9.40041C0.52467 9.2608 0.569409 9.12599 0.638922 9.00366C0.708435 8.88134 0.801361 8.77391 0.912394 8.6875C1.02343 8.60109 1.15039 8.53739 1.28604 8.50005C1.42169 8.46271 1.56336 8.45245 1.70298 8.46986C1.84259 8.48727 1.97741 8.53201 2.09973 8.60153C2.22205 8.67104 2.32948 8.76396 2.41589 8.875L5.05589 12.268L13.6019 1.927C13.6915 1.81836 13.8016 1.72845 13.9259 1.66241C14.0502 1.59637 14.1864 1.55549 14.3265 1.54211C14.4667 1.52874 14.6081 1.54313 14.7427 1.58446C14.8773 1.6258 15.0024 1.69326 15.1109 1.783V1.784Z" />
</svg>
