<svg width="26" height="26" viewBox="0 0 26 26" fill="none" xmlns="http://www.w3.org/2000/svg">
<path fill-rule="evenodd" clip-rule="evenodd" d="M12.6563 5.22791C13.004 5.22791 13.3375 5.36605 13.5834 5.61194C13.8293 5.85784 13.9675 6.19134 13.9675 6.53909V12.7871L17.7011 15.0281C17.8532 15.1143 17.9866 15.2302 18.0933 15.3688C18.2001 15.5074 18.278 15.666 18.3225 15.8351C18.367 16.0043 18.3772 16.1807 18.3525 16.3538C18.3278 16.527 18.2687 16.6935 18.1786 16.8435C18.0886 16.9935 17.9695 17.1239 17.8283 17.2272C17.6871 17.3304 17.5266 17.4044 17.3564 17.4447C17.1862 17.4849 17.0096 17.4908 16.8371 17.4618C16.6646 17.4328 16.4996 17.3695 16.3519 17.2758L11.9821 14.6543C11.788 14.5379 11.6272 14.3732 11.5156 14.1762C11.404 13.9793 11.3452 13.7568 11.3451 13.5304V6.53909C11.3451 6.19134 11.4832 5.85784 11.7291 5.61194C11.975 5.36605 12.3085 5.22791 12.6563 5.22791Z" fill="black"/>
<path fill-rule="evenodd" clip-rule="evenodd" d="M3.04342 12.6563C3.04328 10.6583 3.66569 8.70994 4.8241 7.08209C5.98251 5.45423 7.61936 4.22777 9.50706 3.57323C11.3948 2.91869 13.4395 2.86861 15.357 3.42993C17.2745 3.99126 18.9694 5.1361 20.2061 6.70529L18.5178 8.39194C18.3955 8.51409 18.3122 8.66976 18.2783 8.83926C18.2445 9.00877 18.2616 9.1845 18.3277 9.34425C18.3937 9.50399 18.5056 9.64059 18.6492 9.73675C18.7928 9.83292 18.9617 9.88435 19.1346 9.88454H24.0165C24.2483 9.88454 24.4707 9.79244 24.6346 9.62851C24.7985 9.46458 24.8906 9.24225 24.8906 9.01041V4.12679C24.8908 3.95379 24.8396 3.78465 24.7436 3.64076C24.6475 3.49688 24.5109 3.38473 24.3511 3.3185C24.1913 3.25228 24.0154 3.23497 23.8458 3.26876C23.6761 3.30255 23.5203 3.38592 23.398 3.50832L22.07 4.83807C20.3084 2.71745 17.8822 1.25395 15.1847 0.684819C12.4873 0.115692 9.67666 0.474299 7.20852 1.70251C4.74037 2.93072 2.75939 4.95653 1.58671 7.45153C0.414034 9.94654 0.118402 12.7645 0.747741 15.4485C1.37708 18.1326 2.8945 20.5254 5.054 22.2391C7.21351 23.9528 9.88851 24.8869 12.6454 24.89C15.4022 24.8931 18.0793 23.965 20.2426 22.2561C22.406 20.5473 23.9288 18.1579 24.5641 15.4752C24.6337 15.1406 24.57 14.7921 24.3864 14.5038C24.2028 14.2155 23.914 14.0103 23.5813 13.9319C23.2487 13.8535 22.8986 13.908 22.6056 14.0839C22.3125 14.2598 22.0998 14.5432 22.0126 14.8736C21.4715 17.1689 20.1055 19.1852 18.1746 20.539C16.2436 21.8927 13.8824 22.4895 11.5402 22.2157C9.19791 21.9419 7.038 20.8167 5.47134 19.0541C3.90467 17.2915 3.04058 15.0145 3.04342 12.6563Z" fill="black"/>
</svg>
