<svg width="25" height="25" viewBox="0 0 25 25" fill="none" xmlns="http://www.w3.org/2000/svg">
<path d="M12.8086 6.98126L19.3523 18.315" stroke="black" stroke-width="1.5" stroke-linecap="round" stroke-linejoin="round"/>
<path d="M19.0087 17.72L2.87619 21.4675L1.84619 19.6763L13.1549 7.58002" stroke="black" stroke-width="1.5" stroke-linecap="round" stroke-linejoin="round"/>
<path d="M6.38623 20.6513L7.27498 22.1888C7.43074 22.4694 7.64096 22.7161 7.89331 22.9144C8.14566 23.1128 8.43506 23.2587 8.74455 23.3437C9.05404 23.4287 9.37739 23.4511 9.69563 23.4095C10.0139 23.3679 10.3206 23.2632 10.5979 23.1015C10.8751 22.9399 11.1173 22.7245 11.3102 22.468C11.5032 22.2115 11.6429 21.919 11.7214 21.6078C11.7998 21.2966 11.8153 20.9729 11.767 20.6556C11.7187 20.3383 11.6075 20.0338 11.44 19.76L11.2975 19.5138" stroke="black" stroke-width="1.5" stroke-linecap="round" stroke-linejoin="round"/>
<path d="M13.2539 3.74127V1.61377" stroke="black" stroke-width="1.5" stroke-linecap="round" stroke-linejoin="round"/>
<path d="M21.3999 11.8888H23.5274" stroke="black" stroke-width="1.5" stroke-linecap="round" stroke-linejoin="round"/>
<path d="M2.98096 11.8888H5.10596" stroke="black" stroke-width="1.5" stroke-linecap="round" stroke-linejoin="round"/>
<path d="M5.9873 4.62378L7.4898 6.12878" stroke="black" stroke-width="1.5" stroke-linecap="round" stroke-linejoin="round"/>
<path d="M19.0137 6.12878L20.5162 4.62378" stroke="black" stroke-width="1.5" stroke-linecap="round" stroke-linejoin="round"/>
</svg>
