<svg width="20" height="20" viewBox="0 0 20 20" fill="none" xmlns="http://www.w3.org/2000/svg">
<g clip-path="url(#clip0_50_1040)">
<path d="M10 16.301H18.821" stroke="black" stroke-width="1.5" stroke-linecap="round" stroke-linejoin="round"/>
<path d="M16.3013 13.781L18.8213 16.301L16.3013 18.821" stroke="black" stroke-width="1.5" stroke-linecap="round" stroke-linejoin="round"/>
<path d="M4.95997 3.069C4.95418 3.32093 4.99879 3.57147 5.0912 3.8059C5.1836 4.04034 5.32192 4.25394 5.49805 4.43416C5.67417 4.61438 5.88454 4.75758 6.11679 4.85535C6.34904 4.95312 6.59848 5.00349 6.85047 5.00349C7.10246 5.00349 7.35191 4.95312 7.58416 4.85535C7.81641 4.75758 8.02678 4.61438 8.2029 4.43416C8.37902 4.25394 8.51735 4.04034 8.60975 3.8059C8.70215 3.57147 8.74677 3.32093 8.74097 3.069C8.74677 2.81708 8.70215 2.56654 8.60975 2.33211C8.51735 2.09767 8.37902 1.88407 8.2029 1.70385C8.02678 1.52363 7.81641 1.38042 7.58416 1.28265C7.35191 1.18489 7.10246 1.13452 6.85047 1.13452C6.59848 1.13452 6.34904 1.18489 6.11679 1.28265C5.88454 1.38042 5.67417 1.52363 5.49805 1.70385C5.32192 1.88407 5.1836 2.09767 5.0912 2.33211C4.99879 2.56654 4.95418 2.81708 4.95997 3.069Z" stroke="black" stroke-width="1.5" stroke-linecap="round" stroke-linejoin="round"/>
<path d="M10 9.37C9.99422 9.62192 10.0388 9.87246 10.1312 10.1069C10.2236 10.3413 10.362 10.5549 10.5381 10.7352C10.7142 10.9154 10.9246 11.0586 11.1568 11.1563C11.3891 11.2541 11.6385 11.3045 11.8905 11.3045C12.1425 11.3045 12.3919 11.2541 12.6242 11.1563C12.8564 11.0586 13.0668 10.9154 13.2429 10.7352C13.4191 10.5549 13.5574 10.3413 13.6498 10.1069C13.7422 9.87246 13.7868 9.62192 13.781 9.37C13.7868 9.11808 13.7422 8.86754 13.6498 8.6331C13.5574 8.39866 13.4191 8.18506 13.2429 8.00484C13.0668 7.82462 12.8564 7.68142 12.6242 7.58365C12.3919 7.48588 12.1425 7.43552 11.8905 7.43552C11.6385 7.43552 11.3891 7.48588 11.1568 7.58365C10.9246 7.68142 10.7142 7.82462 10.5381 8.00484C10.362 8.18506 10.2236 8.39866 10.1312 8.6331C10.0388 8.86754 9.99422 9.11808 10 9.37Z" stroke="black" stroke-width="1.5" stroke-linecap="round" stroke-linejoin="round"/>
<path d="M6.21925 16.301C6.21346 16.5529 6.25807 16.8035 6.35047 17.0379C6.44288 17.2723 6.5812 17.4859 6.75732 17.6662C6.93345 17.8464 7.14381 17.9896 7.37606 18.0873C7.60831 18.1851 7.85776 18.2355 8.10975 18.2355C8.36174 18.2355 8.61119 18.1851 8.84344 18.0873C9.07569 17.9896 9.28605 17.8464 9.46217 17.6662C9.6383 17.4859 9.77662 17.2723 9.86903 17.0379C9.96143 16.8035 10.006 16.5529 10.0003 16.301C10.006 16.0491 9.96143 15.7985 9.86903 15.5641C9.77662 15.3297 9.6383 15.1161 9.46217 14.9358C9.28605 14.7556 9.07569 14.6124 8.84344 14.5146C8.61119 14.4169 8.36174 14.3665 8.10975 14.3665C7.85776 14.3665 7.60831 14.4169 7.37606 14.5146C7.14381 14.6124 6.93345 14.7556 6.75732 14.9358C6.5812 15.1161 6.44288 15.3297 6.35047 15.5641C6.25807 15.7985 6.21346 16.0491 6.21925 16.301Z" stroke="black" stroke-width="1.5" stroke-linecap="round" stroke-linejoin="round"/>
<path d="M10.0004 9.37001H4.64541C3.7365 9.38545 2.87003 9.75735 2.23272 10.4056C1.59541 11.0538 1.23828 11.9265 1.23828 12.8355C1.23828 13.7446 1.59541 14.6172 2.23272 15.2654C2.87003 15.9137 3.7365 16.2856 4.64541 16.301H6.21941" stroke="black" stroke-width="1.5" stroke-linecap="round" stroke-linejoin="round"/>
<path d="M13.7813 9.37H15.6723C16.5078 9.37 17.3092 9.03807 17.9 8.44724C18.4909 7.85641 18.8228 7.05506 18.8228 6.2195C18.8228 5.38394 18.4909 4.58259 17.9 3.99176C17.3092 3.40093 16.5078 3.069 15.6723 3.069H8.73828" stroke="black" stroke-width="1.5" stroke-linecap="round" stroke-linejoin="round"/>
<path d="M4.9602 3.069H1.1792" stroke="black" stroke-width="1.5" stroke-linecap="round" stroke-linejoin="round"/>
</g>
<defs>
<clipPath id="clip0_50_1040">
<rect width="20" height="20" fill="white"/>
</clipPath>
</defs>
</svg>
