<svg width="562" height="435" viewBox="0 0 562 435" fill="none" xmlns="http://www.w3.org/2000/svg">
<path d="M25 32C25 14.3269 39.3269 0 57 0H288C305.673 0 320 14.3269 320 32V243H57C39.3269 243 25 228.673 25 211V32Z" fill="#D9D9D9"/>
<path d="M25 32C25 14.3269 39.3269 0 57 0H288C305.673 0 320 14.3269 320 32V243H57C39.3269 243 25 228.673 25 211V32Z" fill="#716FED"/>
<path d="M30 250.903H56.463" stroke="#02021C" stroke-width="4.5" stroke-linecap="round" stroke-linejoin="round"/>
<path d="M48.903 243.343L56.463 250.903L48.903 258.463" stroke="#02021C" stroke-width="4.5" stroke-linecap="round" stroke-linejoin="round"/>
<path d="M14.88 211.207C14.8626 211.963 14.9965 212.714 15.2737 213.418C15.5509 214.121 15.9659 214.762 16.4942 215.302C17.0226 215.843 17.6537 216.273 18.3504 216.566C19.0472 216.859 19.7955 217.01 20.5515 217.01C21.3075 217.01 22.0558 216.859 22.7526 216.566C23.4493 216.273 24.0804 215.843 24.6088 215.302C25.1371 214.762 25.5521 214.121 25.8293 213.418C26.1065 212.714 26.2404 211.963 26.223 211.207C26.2404 210.451 26.1065 209.7 25.8293 208.996C25.5521 208.293 25.1371 207.652 24.6088 207.112C24.0804 206.571 23.4493 206.141 22.7526 205.848C22.0558 205.555 21.3075 205.404 20.5515 205.404C19.7955 205.404 19.0472 205.555 18.3504 205.848C17.6537 206.141 17.0226 206.571 16.4942 207.112C15.9659 207.652 15.5509 208.293 15.2737 208.996C14.9965 209.7 14.8626 210.451 14.88 211.207Z" stroke="#02021C" stroke-width="4.5" stroke-linecap="round" stroke-linejoin="round"/>
<path d="M30 230.11C29.9826 230.866 30.1165 231.617 30.3937 232.321C30.6709 233.024 31.0859 233.665 31.6142 234.205C32.1426 234.746 32.7737 235.176 33.4704 235.469C34.1672 235.762 34.9155 235.913 35.6715 235.913C36.4275 235.913 37.1758 235.762 37.8726 235.469C38.5693 235.176 39.2004 234.746 39.7288 234.205C40.2571 233.665 40.6721 233.024 40.9493 232.321C41.2265 231.617 41.3604 230.866 41.343 230.11C41.3604 229.354 41.2265 228.603 40.9493 227.899C40.6721 227.196 40.2571 226.555 39.7288 226.015C39.2004 225.474 38.5693 225.044 37.8726 224.751C37.1758 224.458 36.4275 224.307 35.6715 224.307C34.9155 224.307 34.1672 224.458 33.4704 224.751C32.7737 225.044 32.1426 225.474 31.6142 226.015C31.0859 226.555 30.6709 227.196 30.3937 227.899C30.1165 228.603 29.9826 229.354 30 230.11Z" stroke="#02021C" stroke-width="4.5" stroke-linecap="round" stroke-linejoin="round"/>
<path d="M18.657 250.903C18.6396 251.659 18.7735 252.41 19.0507 253.114C19.3279 253.817 19.7429 254.458 20.2712 254.998C20.7996 255.539 21.4307 255.969 22.1274 256.262C22.8242 256.555 23.5725 256.706 24.3285 256.706C25.0845 256.706 25.8328 256.555 26.5296 256.262C27.2263 255.969 27.8574 255.539 28.3858 254.998C28.9141 254.458 29.3291 253.817 29.6063 253.114C29.8835 252.41 30.0174 251.659 30 250.903C30.0174 250.147 29.8835 249.396 29.6063 248.692C29.3291 247.989 28.9141 247.348 28.3858 246.808C27.8574 246.267 27.2263 245.837 26.5296 245.544C25.8328 245.251 25.0845 245.1 24.3285 245.1C23.5725 245.1 22.8242 245.251 22.1274 245.544C21.4307 245.837 20.7996 246.267 20.2712 246.808C19.7429 247.348 19.3279 247.989 19.0507 248.692C18.7735 249.396 18.6396 250.147 18.657 250.903Z" stroke="#02021C" stroke-width="4.5" stroke-linecap="round" stroke-linejoin="round"/>
<path d="M30 230.11H13.935C11.2083 230.156 8.60886 231.272 6.69694 233.217C4.78501 235.161 3.71361 237.779 3.71361 240.507C3.71361 243.234 4.78501 245.852 6.69694 247.796C8.60886 249.741 11.2083 250.857 13.935 250.903H18.657" stroke="#02021C" stroke-width="4.5" stroke-linecap="round" stroke-linejoin="round"/>
<path d="M41.343 230.11H47.016C49.5227 230.11 51.9267 229.114 53.6992 227.342C55.4717 225.569 56.4675 223.165 56.4675 220.659C56.4675 218.152 55.4717 215.748 53.6992 213.975C51.9267 212.203 49.5227 211.207 47.016 211.207H26.214" stroke="#02021C" stroke-width="4.5" stroke-linecap="round" stroke-linejoin="round"/>
<path d="M14.88 211.207H3.537" stroke="#02021C" stroke-width="4.5" stroke-linecap="round" stroke-linejoin="round"/>
<rect x="353" y="129" width="209" height="172" rx="27" fill="#D9D9D9"/>
<rect x="353" y="129" width="209" height="172" rx="27" fill="#C5F4CF"/>
<path fill-rule="evenodd" clip-rule="evenodd" d="M472.222 200.568C472.439 200.747 472.619 200.967 472.751 201.216C472.883 201.465 472.965 201.737 472.992 202.017C473.019 202.298 472.99 202.58 472.907 202.85C472.824 203.119 472.689 203.369 472.51 203.586L455.282 224.436L455.276 224.44C454.884 224.911 454.392 225.288 453.836 225.545C453.28 225.801 452.674 225.931 452.062 225.924C451.44 225.916 450.827 225.767 450.271 225.489C449.714 225.21 449.228 224.809 448.848 224.316L443.45 217.382C443.277 217.16 443.15 216.906 443.075 216.635C443 216.363 442.98 216.08 443.015 215.801C443.05 215.522 443.139 215.252 443.278 215.007C443.417 214.763 443.603 214.548 443.825 214.375C444.047 214.202 444.301 214.075 444.572 214C444.844 213.925 445.127 213.905 445.406 213.94C445.685 213.975 445.955 214.064 446.2 214.203C446.444 214.342 446.659 214.528 446.832 214.75L452.112 221.536L469.204 200.854C469.383 200.637 469.603 200.457 469.852 200.325C470.101 200.193 470.373 200.111 470.653 200.084C470.934 200.057 471.216 200.086 471.486 200.169C471.755 200.252 472.005 200.387 472.222 200.566V200.568Z" fill="#012419"/>
<path d="M369.117 117.463L382.205 140.13" stroke="black" stroke-width="3" stroke-linecap="round" stroke-linejoin="round"/>
<path d="M381.518 138.94L349.253 146.435L347.193 142.853L369.81 118.66" stroke="black" stroke-width="3" stroke-linecap="round" stroke-linejoin="round"/>
<path d="M356.272 144.802L358.05 147.877C358.362 148.439 358.782 148.932 359.287 149.329C359.791 149.725 360.37 150.017 360.989 150.187C361.608 150.357 362.255 150.402 362.891 150.319C363.528 150.236 364.141 150.026 364.696 149.703C365.25 149.38 365.735 148.949 366.121 148.436C366.506 147.923 366.786 147.338 366.943 146.716C367.1 146.093 367.131 145.446 367.034 144.811C366.937 144.176 366.715 143.568 366.38 143.02L366.095 142.527" stroke="black" stroke-width="3" stroke-linecap="round" stroke-linejoin="round"/>
<path d="M370.008 110.983V106.728" stroke="black" stroke-width="3" stroke-linecap="round" stroke-linejoin="round"/>
<path d="M386.3 127.278H390.555" stroke="black" stroke-width="3" stroke-linecap="round" stroke-linejoin="round"/>
<path d="M349.462 127.278H353.712" stroke="black" stroke-width="3" stroke-linecap="round" stroke-linejoin="round"/>
<path d="M355.475 112.748L358.48 115.758" stroke="black" stroke-width="3" stroke-linecap="round" stroke-linejoin="round"/>
<path d="M381.527 115.758L384.532 112.748" stroke="black" stroke-width="3" stroke-linecap="round" stroke-linejoin="round"/>
<rect x="129" y="267" width="191" height="157" rx="20" fill="#D9D9D9"/>
<rect x="129" y="267" width="191" height="157" rx="20" fill="#F0DDFF"/>
<g clip-path="url(#clip0_58_1256)">
<path d="M306.5 396.417V399.199" stroke="black" stroke-width="3" stroke-linecap="round" stroke-linejoin="round"/>
<path d="M306.5 429.801V432.583" stroke="black" stroke-width="3" stroke-linecap="round" stroke-linejoin="round"/>
<path d="M324.583 414.5H321.801" stroke="black" stroke-width="3" stroke-linecap="round" stroke-linejoin="round"/>
<path d="M291.199 414.5H288.417" stroke="black" stroke-width="3" stroke-linecap="round" stroke-linejoin="round"/>
<path d="M319.298 401.702L317.322 403.678" stroke="black" stroke-width="3" stroke-linecap="round" stroke-linejoin="round"/>
<path d="M295.678 425.322L293.702 427.298" stroke="black" stroke-width="3" stroke-linecap="round" stroke-linejoin="round"/>
<path d="M319.298 427.298L317.322 425.322" stroke="black" stroke-width="3" stroke-linecap="round" stroke-linejoin="round"/>
<path d="M295.678 403.678L293.702 401.702" stroke="black" stroke-width="3" stroke-linecap="round" stroke-linejoin="round"/>
<path d="M306.5 415.892C306.687 415.899 306.874 415.868 307.049 415.802C307.224 415.735 307.384 415.634 307.519 415.504C307.654 415.374 307.761 415.218 307.834 415.046C307.908 414.874 307.945 414.688 307.945 414.501C307.945 414.314 307.908 414.128 307.834 413.956C307.761 413.784 307.654 413.628 307.519 413.498C307.384 413.368 307.224 413.267 307.049 413.2C306.874 413.134 306.687 413.103 306.5 413.11C306.14 413.124 305.8 413.276 305.55 413.536C305.301 413.795 305.161 414.141 305.161 414.501C305.161 414.861 305.301 415.207 305.55 415.466C305.8 415.726 306.14 415.878 306.5 415.892Z" stroke="black" stroke-width="3" stroke-linecap="round" stroke-linejoin="round"/>
</g>
<circle cx="402" cy="369" r="26" fill="#FFF2C4"/>
<path d="M425.75 400.879C423.017 397.869 419.31 395.92 415.281 395.373C414.822 395.323 414.399 395.104 414.092 394.759C413.785 394.415 413.617 393.969 413.62 393.508V378.487C413.62 378.22 413.677 377.956 413.788 377.712C413.899 377.469 414.061 377.253 414.262 377.077C414.464 376.902 414.701 376.772 414.958 376.697C415.214 376.621 415.484 376.601 415.748 376.639C419.6 377.278 423.124 379.198 425.75 382.088V400.879Z" stroke="black" stroke-width="2.2" stroke-linecap="round" stroke-linejoin="round"/>
<path d="M425.75 400.879C428.483 397.869 432.19 395.92 436.219 395.373C436.678 395.323 437.101 395.104 437.408 394.759C437.715 394.415 437.883 393.969 437.88 393.508V378.487C437.88 378.22 437.823 377.956 437.712 377.713C437.601 377.47 437.44 377.253 437.238 377.078C437.036 376.903 436.799 376.773 436.543 376.697C436.287 376.621 436.018 376.602 435.753 376.639C431.901 377.278 428.376 379.198 425.75 382.088V400.879Z" stroke="black" stroke-width="2.2" stroke-linecap="round" stroke-linejoin="round"/>
<defs>
<clipPath id="clip0_58_1256">
<rect width="41" height="41" fill="white" transform="translate(286 394)"/>
</clipPath>
</defs>
</svg>
