<svg width="16" height="20" viewBox="0 0 16 20" fill="none" xmlns="http://www.w3.org/2000/svg">
<path d="M12.8848 7.60259H2.32026C1.9701 7.60259 1.63429 7.74169 1.38669 7.98929C1.1391 8.23689 1 8.5727 1 8.92286V16.8463C1 17.1965 1.1391 17.5323 1.38669 17.7799C1.63429 18.0275 1.9701 18.1666 2.32026 18.1666H12.8842C13.2344 18.1666 13.5702 18.0275 13.8178 17.7799C14.0654 17.5323 14.2045 17.1965 14.2045 16.8463V8.92286C14.2045 8.5727 14.0654 8.23689 13.8178 7.98929C13.5702 7.74169 13.235 7.60259 12.8848 7.60259Z" stroke="black" stroke-width="1.7" stroke-linecap="round" stroke-linejoin="round"/>
<path d="M12.2247 7.6026V5.62188C12.2247 4.39609 11.7377 3.22049 10.8709 2.35372C10.0042 1.48695 8.8286 1.00001 7.60281 1.00001C6.37702 1.00001 5.20143 1.48695 4.33467 2.35372C3.4679 3.22049 2.98096 4.39609 2.98096 5.62188V7.6026" stroke="black" stroke-width="1.7" stroke-linecap="round" stroke-linejoin="round"/>
<path d="M7.60282 13.5447C7.69124 13.5475 7.7793 13.5324 7.86179 13.5005C7.94428 13.4686 8.01952 13.4204 8.08303 13.3588C8.14655 13.2972 8.19704 13.2235 8.23153 13.1421C8.26601 13.0606 8.28378 12.9731 8.28378 12.8846C8.28378 12.7961 8.26601 12.7086 8.23153 12.6271C8.19704 12.5457 8.14655 12.472 8.08303 12.4104C8.01952 12.3488 7.94428 12.3006 7.86179 12.2687C7.7793 12.2368 7.69124 12.2217 7.60282 12.2245C7.43129 12.2298 7.26858 12.3017 7.14913 12.4249C7.02969 12.5481 6.96289 12.713 6.96289 12.8846C6.96289 13.0562 7.02969 13.2211 7.14913 13.3443C7.26858 13.4675 7.43129 13.5394 7.60282 13.5447Z" stroke="black" stroke-width="1.7" stroke-linecap="round" stroke-linejoin="round"/>
</svg>
