<svg width="26" height="26" viewBox="0 0 26 26" fill="none" xmlns="http://www.w3.org/2000/svg">
<path fill-rule="evenodd" clip-rule="evenodd" d="M8.95134 0.421875C8.4879 0.421875 8.04344 0.605976 7.71574 0.933678C7.38804 1.26138 7.20394 1.70584 7.20394 2.16928V9.59766C7.20394 10.0611 7.38804 10.5056 7.71574 10.8333C8.04344 11.161 8.4879 11.3451 8.95134 11.3451H16.3797C16.8432 11.3451 17.2876 11.161 17.6153 10.8333C17.943 10.5056 18.1271 10.0611 18.1271 9.59766V2.16928C18.1271 1.70584 17.943 1.26138 17.6153 0.933678C17.2876 0.605976 16.8432 0.421875 16.3797 0.421875L8.95134 0.421875ZM2.16928 13.9674C1.93981 13.9674 1.71258 14.0126 1.50058 14.1005C1.28857 14.1883 1.09594 14.317 0.933678 14.4792C0.771417 14.6415 0.642704 14.8341 0.554888 15.0461C0.467073 15.2581 0.421875 15.4854 0.421875 15.7148V23.1432C0.421875 23.6067 0.605976 24.0511 0.933678 24.3788C1.26138 24.7065 1.70584 24.8906 2.16928 24.8906H9.59766C10.0611 24.8906 10.5056 24.7065 10.8333 24.3788C11.161 24.0511 11.3451 23.6067 11.3451 23.1432V15.7148C11.3451 15.4854 11.2999 15.2581 11.212 15.0461C11.1242 14.8341 10.9955 14.6415 10.8333 14.4792C10.671 14.317 10.4784 14.1883 10.2664 14.1005C10.0544 14.0126 9.82713 13.9674 9.59766 13.9674H2.16928ZM13.9666 15.7148C13.9666 15.4854 14.0118 15.2581 14.0996 15.0461C14.1874 14.8341 14.3161 14.6415 14.4784 14.4792C14.6407 14.317 14.8333 14.1883 15.0453 14.1005C15.2573 14.0126 15.4845 13.9674 15.714 13.9674H23.1432C23.3727 13.9674 23.5999 14.0126 23.8119 14.1005C24.0239 14.1883 24.2166 14.317 24.3788 14.4792C24.5411 14.6415 24.6698 14.8341 24.7576 15.0461C24.8454 15.2581 24.8906 15.4854 24.8906 15.7148V23.1432C24.8906 23.6067 24.7065 24.0511 24.3788 24.3788C24.0511 24.7065 23.6067 24.8906 23.1432 24.8906H15.7148C15.4854 24.8906 15.2581 24.8454 15.0461 24.7576C14.8341 24.6698 14.6415 24.5411 14.4792 24.3788C14.317 24.2166 14.1883 24.0239 14.1005 23.8119C14.0126 23.5999 13.9674 23.3727 13.9674 23.1432V15.7148H13.9666Z" fill="black"/>
</svg>
