<svg width="26" height="26" viewBox="0 0 26 26" fill="none" xmlns="http://www.w3.org/2000/svg">
<g clip-path="url(#clip0_3_226)">
<path d="M13.4781 12.4816C13.2189 12.5941 12.9393 12.6522 12.6567 12.6522C12.3741 12.6522 12.0946 12.5941 11.8353 12.4816L1.87234 7.86711C1.71066 7.78548 1.57481 7.66059 1.47989 7.50634C1.38497 7.35208 1.33472 7.17452 1.33472 6.9934C1.33472 6.81229 1.38497 6.63472 1.47989 6.48047C1.57481 6.32622 1.71066 6.20133 1.87234 6.1197L11.8345 1.47064C12.0937 1.35807 12.3733 1.29999 12.6559 1.29999C12.9385 1.29999 13.2181 1.35807 13.4773 1.47064L23.4394 6.08511C23.6011 6.16674 23.737 6.29163 23.8319 6.44588C23.9268 6.60013 23.9771 6.77769 23.9771 6.95881C23.9771 7.13993 23.9268 7.31749 23.8319 7.47174C23.737 7.62599 23.6011 7.75088 23.4394 7.83251L13.4781 12.4816Z" stroke="black" stroke-width="2.25" stroke-linecap="round" stroke-linejoin="round"/>
<path d="M24.0165 13.2679L13.3549 18.1794C13.1272 18.2833 12.8799 18.337 12.6297 18.337C12.3795 18.337 12.1322 18.2833 11.9045 18.1794L1.29602 13.2679" stroke="black" stroke-width="2.25" stroke-linecap="round" stroke-linejoin="round"/>
<path d="M24.0165 18.9481L13.3549 23.8595C13.1272 23.9634 12.8799 24.0171 12.6297 24.0171C12.3795 24.0171 12.1322 23.9634 11.9045 23.8595L1.29602 18.9481" stroke="black" stroke-width="2.25" stroke-linecap="round" stroke-linejoin="round"/>
</g>
<defs>
<clipPath id="clip0_3_226">
<rect width="25.3125" height="25.3125" fill="white"/>
</clipPath>
</defs>
</svg>
