<svg width="25" height="25" viewBox="0 0 25 25" fill="none" xmlns="http://www.w3.org/2000/svg">
<g clip-path="url(#clip0_49_976)">
<path fill-rule="evenodd" clip-rule="evenodd" d="M12.5 0.625C12.8375 0.625 13.1612 0.759067 13.3998 0.997707C13.6384 1.23635 13.7725 1.56001 13.7725 1.8975V3.59375C13.7725 3.93124 13.6384 4.2549 13.3998 4.49354C13.1612 4.73218 12.8375 4.86625 12.5 4.86625C12.1625 4.86625 11.8388 4.73218 11.6002 4.49354C11.3616 4.2549 11.2275 3.93124 11.2275 3.59375V1.8975C11.2275 1.56001 11.3616 1.23635 11.6002 0.997707C11.8388 0.759067 12.1625 0.625 12.5 0.625ZM14.1963 12.5C14.1963 12.9499 14.0175 13.3813 13.6994 13.6994C13.3813 14.0175 12.9499 14.1963 12.5 14.1963C12.0501 14.1963 11.6187 14.0175 11.3006 13.6994C10.9825 13.3813 10.8037 12.9499 10.8037 12.5C10.8037 12.0501 10.9825 11.6187 11.3006 11.3006C11.6187 10.9825 12.0501 10.8037 12.5 10.8037C12.9499 10.8037 13.3813 10.9825 13.6994 11.3006C14.0175 11.6187 14.1963 12.0501 14.1963 12.5ZM13.7725 21.4062C13.7725 21.0688 13.6384 20.7451 13.3998 20.5065C13.1612 20.2678 12.8375 20.1338 12.5 20.1338C12.1625 20.1338 11.8388 20.2678 11.6002 20.5065C11.3616 20.7451 11.2275 21.0688 11.2275 21.4062V23.1025C11.2275 23.44 11.3616 23.7637 11.6002 24.0023C11.8388 24.2409 12.1625 24.375 12.5 24.375C12.8375 24.375 13.1612 24.2409 13.3998 24.0023C13.6384 23.7637 13.7725 23.44 13.7725 23.1025V21.4062ZM20.1338 12.5C20.1338 12.1625 20.2678 11.8388 20.5065 11.6002C20.7451 11.3616 21.0688 11.2275 21.4062 11.2275H23.1025C23.44 11.2275 23.7637 11.3616 24.0023 11.6002C24.2409 11.8388 24.375 12.1625 24.375 12.5C24.375 12.8375 24.2409 13.1612 24.0023 13.3998C23.7637 13.6384 23.44 13.7725 23.1025 13.7725H21.4062C21.0688 13.7725 20.7451 13.6384 20.5065 13.3998C20.2678 13.1612 20.1338 12.8375 20.1338 12.5ZM1.8975 11.2275C1.56001 11.2275 1.23635 11.3616 0.997707 11.6002C0.759067 11.8388 0.625 12.1625 0.625 12.5C0.625 12.8375 0.759067 13.1612 0.997707 13.3998C1.23635 13.6384 1.56001 13.7725 1.8975 13.7725H3.59375C3.93124 13.7725 4.2549 13.6384 4.49354 13.3998C4.73218 13.1612 4.86625 12.8375 4.86625 12.5C4.86625 12.1625 4.73218 11.8388 4.49354 11.6002C4.2549 11.3616 3.93124 11.2275 3.59375 11.2275H1.8975ZM4.1025 4.1025C4.34111 3.86412 4.66459 3.73021 5.00187 3.73021C5.33916 3.73021 5.66264 3.86412 5.90125 4.1025L7.36375 5.56125C7.60294 5.80028 7.73738 6.12453 7.7375 6.46268C7.73762 6.80083 7.6034 7.12518 7.36437 7.36437C7.12535 7.60357 6.80109 7.73801 6.46294 7.73813C6.12479 7.73824 5.80044 7.60403 5.56125 7.365L4.1025 5.90375C3.86412 5.66514 3.73021 5.34166 3.73021 5.00437C3.73021 4.66709 3.86412 4.34361 4.1025 4.105V4.1025ZM19.4387 17.6363C19.2002 17.3974 18.8766 17.2631 18.539 17.2628C18.2014 17.2626 17.8776 17.3965 17.6388 17.635C17.3999 17.8735 17.2656 18.1972 17.2653 18.5347C17.2651 18.8723 17.399 19.1961 17.6375 19.435L19.0988 20.8975C19.3387 21.13 19.6604 21.2588 19.9945 21.2562C20.3286 21.2535 20.6483 21.1195 20.8844 20.8832C21.1206 20.6469 21.2543 20.3271 21.2568 19.993C21.2592 19.6589 21.1302 19.3373 20.8975 19.0975L19.4387 17.6388V17.6363ZM20.8975 4.1025C21.1359 4.34111 21.2698 4.66459 21.2698 5.00187C21.2698 5.33916 21.1359 5.66264 20.8975 5.90125L19.4387 7.36375C19.3206 7.48202 19.1802 7.57586 19.0258 7.6399C18.8713 7.70394 18.7058 7.73693 18.5386 7.73698C18.2009 7.7371 17.877 7.60307 17.6381 7.36437C17.5199 7.24619 17.426 7.10586 17.362 6.9514C17.2979 6.79695 17.2649 6.6314 17.2649 6.46419C17.2648 6.12651 17.3988 5.80261 17.6375 5.56375L19.0988 4.105C19.3374 3.86662 19.6608 3.73271 19.9981 3.73271C20.3354 3.73271 20.6589 3.86662 20.8975 4.105V4.1025ZM7.36375 19.4387C7.48485 19.3212 7.58136 19.1808 7.64768 19.0256C7.71399 18.8704 7.74878 18.7036 7.75001 18.5349C7.75125 18.3661 7.71891 18.1988 7.65487 18.0427C7.59084 17.8866 7.49639 17.7447 7.37703 17.6255C7.25766 17.5062 7.11576 17.4118 6.95959 17.3479C6.80342 17.284 6.63609 17.2518 6.46734 17.2531C6.2986 17.2545 6.13181 17.2894 5.97668 17.3558C5.82156 17.4222 5.68119 17.5188 5.56375 17.64L4.105 19.0988C3.87835 19.3397 3.75442 19.6594 3.75946 19.9901C3.7645 20.3208 3.89813 20.6366 4.13202 20.8705C4.36591 21.1044 4.68168 21.238 5.01241 21.243C5.34314 21.2481 5.66284 21.1241 5.90375 20.8975L7.36375 19.4387Z" fill="black"/>
</g>
<defs>
<clipPath id="clip0_49_976">
<rect width="25" height="25" fill="white"/>
</clipPath>
</defs>
</svg>
