<svg width="12" height="12" viewBox="0 0 12 12" fill="none" xmlns="http://www.w3.org/2000/svg">
<g clip-path="url(#clip0_49_968)">
<path fill-rule="evenodd" clip-rule="evenodd" d="M11.1376 1.50892C11.2161 1.57363 11.2811 1.65317 11.3288 1.74301C11.3765 1.83285 11.4061 1.93121 11.4157 2.03247C11.4254 2.13374 11.415 2.23591 11.3851 2.33315C11.3553 2.43039 11.3065 2.52079 11.2417 2.59917L5.01807 10.1312L5.0159 10.1327C4.87434 10.3027 4.69669 10.439 4.49585 10.5317C4.29502 10.6244 4.07604 10.6713 3.85484 10.6688C3.63001 10.6659 3.40876 10.6121 3.20767 10.5115C3.00659 10.4109 2.8309 10.2661 2.69379 10.0879L0.743758 7.58298C0.681327 7.50276 0.635308 7.41102 0.608328 7.31302C0.581349 7.21501 0.573937 7.11265 0.586516 7.01178C0.599096 6.91091 0.63142 6.81351 0.681643 6.72513C0.731867 6.63675 0.799005 6.55913 0.879226 6.4967C0.959448 6.43427 1.05118 6.38825 1.14919 6.36127C1.24719 6.33429 1.34955 6.32688 1.45042 6.33946C1.55129 6.35204 1.6487 6.38436 1.73708 6.43458C1.82545 6.48481 1.90307 6.55195 1.96551 6.63217L3.87291 9.08361L10.0474 1.61224C10.1121 1.53375 10.1916 1.46879 10.2815 1.42107C10.3713 1.37335 10.4697 1.34382 10.5709 1.33416C10.6722 1.32449 10.7744 1.33489 10.8716 1.36476C10.9689 1.39462 11.0593 1.44336 11.1376 1.5082V1.50892Z" fill="#0E7455"/>
</g>
<defs>
<clipPath id="clip0_49_968">
<rect width="11.56" height="11.56" fill="white" transform="translate(0.220215 0.220001)"/>
</clipPath>
</defs>
</svg>
